:FULLY-SPECIFIED
:FORCE-ALL-JOINTS-BE-3DOF
:DEGREES
272
root 8.31683 16.1465 -25.18 17.6651 62.2988 12.5092
lfemur -28.4103 12.0635 -21.1242
ltibia 41.9281 0 0
lfoot -9.78736 -17.0403 0
ltoes 60.3215 0 0
rfemur -41.3129 -1.71463 9.09871
rtibia 75.935 0 0
rfoot 11.7512 -5.34639 0
rtoes -2.82884 0 0
lowerback 4.826 -3.82982 -1.91746
upperback 0.706399 -5.20436 -0.212405
thorax -1.85938 -2.56513 1.21483
lowerneck -6.84651 -10.0131 -3.72858
upperneck 1.25282 -13.1735 3.67414
head 2.1351 -6.52135 1.23461
lclavicle 1.4391e-14 9.51864e-15 0
lhumerus -47.1962 -34.8006 111.522
lradius 59.9071 0 0
lwrist 20.2312 0 0
lhand 14.9987 13.9731 0
lfingers 7.12502 0 0
lthumb 39.8212 39.0086 0
rclavicle 1.4391e-14 9.51864e-15 0
rhumerus -49.8526 -1.05624 -85.1033
rradius 42.5536 0 0
rwrist 31.5424 0 0
rhand -22.1691 2.27081 0
rfingers 7.12502 0 0
rthumb 4.25782 -747.75 0
273
root 8.37817 16.1444 -25.1527 20.1454 66.2129 16.6324
lfemur -26.3671 9.71235 -22.0181
ltibia 41.8862 0 0
lfoot -8.18683 -19.5936 0
ltoes 61.7874 0 0
rfemur -47.5192 -3.45381 11.5968
rtibia 79.0204 0 0
rfoot 9.67259 -3.10928 0
rtoes -0.841939 0 0
lowerback 5.71099 -4.19125 -2.28007
upperback 1.18316 -5.7212 -1.10105
thorax -1.88574 -2.82288 0.572628
lowerneck -5.98627 -10.6099 -4.23897
upperneck 0.97928 -13.9904 4.57441
head 2.02833 -6.91925 1.60201
lclavicle 2.20863e-14 1.06503e-14 0
lhumerus -45.9926 -35.1923 109.27
lradius 59.5393 0 0
lwrist 20.2687 0 0
lhand 17.2059 14.4968 0
lfingers 7.12502 0 0
lthumb 41.9029 38.9443 0
rclavicle 2.20863e-14 1.06503e-14 0
rhumerus -52.3235 1.26011 -90.6371
rradius 44.2661 0 0
rwrist 27.7102 0 0
rhand -23.2877 2.81894 0
rfingers 7.12502 0 0
rthumb 3.16821 -747.148 0
274
root 8.4395 16.1423 -25.1255 23.0313 70.8426 21.4534
lfemur -23.9806 6.96001 -23.0939
ltibia 41.8329 0 0
lfoot -6.34822 -22.6063 0
ltoes 63.6522 0 0
rfemur -54.677 -5.40979 14.4999
rtibia 82.6074 0 0
rfoot 7.37167 -0.590177 0
rtoes 1.37596 0 0
lowerback 6.738 -4.61229 -2.71573
upperback 1.7394 -6.3233 -2.13178
thorax -1.91208 -3.12316 -0.164029
lowerneck -4.98008 -11.3206 -4.84023
upperneck 0.669695 -14.9622 5.62359
head 1.90668 -7.39287 2.03008
lclavicle 3.07285e-14 1.19908e-14 0
lhumerus -44.5846 -35.6402 106.647
lradius 59.1166 0 0
lwrist 20.3141 0 0
lhand 19.7519 15.0959 0
lfingers 7.12502 0 0
lthumb 44.3039 38.8645 0
rclavicle 3.07285e-14 1.19908e-14 0
rhumerus -55.2369 3.9752 -97.0583
rradius 46.1277 0 0
rwrist 23.439 0 0
rhand -24.7442 3.49961 0
rfingers 7.12502 0 0
rthumb 1.75858 -746.473 0
275
root 8.49337 16.1004 -25.0747 23.5024 71.457 22.2931
lfemur -23.5681 6.72077 -23.1722
ltibia 42.0514 0 0
lfoot -6.26454 -23.122 0
ltoes 63.7619 0 0
rfemur -55.1869 -5.59207 14.9893
rtibia 82.4793 0 0
rfoot 6.99663 -0.639444 0
rtoes 2.42117 0 0
lowerback 6.84925 -4.66591 -2.84474
upperback 1.84245 -6.39987 -2.27285
thorax -1.86404 -3.16256 -0.231446
lowerneck -4.83213 -11.4134 -4.94044
upperneck 0.688434 -15.0939 5.78304
head 1.91379 -7.45671 2.09604
lclavicle 2.95766e-14 1.18993e-14 0
lhumerus -44.361 -35.7385 106.263
lradius 59.0974 0 0
lwrist 20.3094 0 0
lhand 20.0473 15.1773 0
lfingers 7.12502 0 0
lthumb 44.5823 38.8654 0
rclavicle 2.95766e-14 1.18993e-14 0
rhumerus -55.9234 4.74622 -97.954
rradius 46.8125 0 0
rwrist 22.9242 0 0
rhand -24.9669 3.35073 0
rfingers 7.12502 0 0
rthumb 1.54359 -746.627 0
276
root 8.54725 16.0584 -25.0238 23.8767 71.9824 22.9259
lfemur -23.2874 6.48159 -23.2584
ltibia 42.1669 0 0
lfoot -6.13658 -23.5091 0
ltoes 63.8876 0 0
rfemur -55.6369 -5.7088 15.3112
rtibia 82.5372 0 0
rfoot 6.72737 -0.635818 0
rtoes 3.13194 0 0
lowerback 6.93122 -4.71475 -2.92298
upperback 1.90912 -6.46828 -2.37531
thorax -1.83951 -3.19734 -0.287286
lowerneck -4.72161 -11.4855 -5.02721
upperneck 0.708258 -15.1957 5.89029
head 1.92049 -7.50575 2.14291
lclavicle 2.92303e-14 1.19103e-14 0
lhumerus -44.1872 -35.7691 105.975
lradius 59.0769 0 0
lwrist 20.3119 0 0
lhand 20.2922 15.2516 0
lfingers 7.12502 0 0
lthumb 44.813 38.8727 0
rclavicle 2.92303e-14 1.19103e-14 0
rhumerus -56.5169 5.21445 -98.7319
rradius 47.1999 0 0
rwrist 22.6251 0 0
rhand -25.1871 3.32776 0
rfingers 7.12502 0 0
rthumb 1.33115 -746.658 0
277
root 8.60112 16.0165 -24.973 24.1684 72.4269 23.3849
lfemur -23.1169 6.24953 -23.348
ltibia 42.2021 0 0
lfoot -5.97837 -23.7877 0
ltoes 64.0203 0 0
rfemur -56.0172 -5.76701 15.4929
rtibia 82.7302 0 0
rfoot 6.54724 -0.600334 0
rtoes 3.57927 0 0
lowerback 6.98695 -4.75894 -2.96017
upperback 1.94555 -6.52893 -2.44444
thorax -1.83324 -3.22784 -0.331814
lowerneck -4.64324 -11.5393 -5.10234
upperneck 0.730659 -15.2712 5.9533
head 1.92752 -7.54184 2.17356
lclavicle 2.94868e-14 1.19981e-14 0
lhumerus -44.0558 -35.7441 105.77
lradius 59.0565 0 0
lwrist 20.32 0 0
lhand 20.4904 15.319 0
lfingers 7.12502 0 0
lthumb 44.9997 38.8857 0
rclavicle 2.94868e-14 1.19981e-14 0
rhumerus -57.0351 5.43744 -99.4033
rradius 47.3487 0 0
rwrist 22.5109 0 0
rhand -25.403 3.40232 0
rfingers 7.12502 0 0
rthumb 1.12282 -746.592 0
278
root 8.655 15.9745 -24.9221 24.3919 72.7985 23.7026
lfemur -23.0354 6.03162 -23.4365
ltibia 42.1801 0 0
lfoot -5.80397 -23.9781 0
ltoes 64.1511 0 0
rfemur -56.3181 -5.77373 15.5612
rtibia 83.0072 0 0
rfoot 6.4396 -0.554024 0
rtoes 3.83415 0 0
lowerback 7.01945 -4.79858 -2.966
upperback 1.95787 -6.58221 -2.48549
thorax -1.83998 -3.25437 -0.365295
lowerneck -4.59174 -11.5774 -5.16763
upperneck 0.757131 -15.3243 5.98003
head 1.93561 -7.56683 2.19085
lclavicle 3.01434e-14 1.21367e-14 0
lhumerus -43.9597 -35.6757 105.634
lradius 59.0381 0 0
lwrist 20.3321 0 0
lhand 20.6461 15.3799 0
lfingers 7.12502 0 0
lthumb 45.1464 38.9036 0
rclavicle 3.01434e-14 1.21367e-14 0
rhumerus -57.4956 5.47274 -99.9796
rradius 47.3178 0 0
rwrist 22.5511 0 0
rhand -25.6132 3.54608 0
rfingers 7.12502 0 0
rthumb 0.920186 -746.458 0
279
root 8.70887 15.9326 -24.8713 24.5612 73.1054 23.9121
lfemur -23.0214 5.83492 -23.5193
ltibia 42.1239 0 0
lfoot -5.62742 -24.1004 0
ltoes 64.2711 0 0
rfemur -56.5299 -5.736 15.5434
rtibia 83.3173 0 0
rfoot 6.38778 -0.517922 0
rtoes 3.96759 0 0
lowerback 7.03175 -4.83378 -2.95018
upperback 1.95223 -6.62852 -2.50374
thorax -1.8545 -3.27724 -0.387994
lowerneck -4.56181 -11.6021 -5.22488
upperneck 0.789167 -15.3586 5.97844
head 1.94549 -7.58258 2.19768
lclavicle 3.09976e-14 1.23004e-14 0
lhumerus -43.8915 -35.5759 105.553
lradius 59.0233 0 0
lwrist 20.3466 0 0
lhand 20.7633 15.4347 0
lfingers 7.12502 0 0
lthumb 45.2567 38.9256 0
rclavicle 3.09976e-14 1.23004e-14 0
rhumerus -57.9162 5.37788 -100.472
rradius 47.1658 0 0
rwrist 22.715 0 0
rhand -25.8158 3.73067 0
rfingers 7.12502 0 0
rthumb 0.7248 -746.284 0
280
root 8.76275 15.8906 -24.8204 24.6907 73.3556 24.0459
lfemur -23.0535 5.66647 -23.5919
ltibia 42.0562 0 0
lfoot -5.46274 -24.1748 0
ltoes 64.3712 0 0
rfemur -56.6428 -5.66084 15.4665
rtibia 83.6093 0 0
rfoot 6.37515 -0.513062 0
rtoes 4.05059 0 0
lowerback 7.02689 -4.86467 -2.92243
upperback 1.93476 -6.66826 -2.50444
thorax -1.87156 -3.29677 -0.400176
lowerneck -4.54818 -11.6159 -5.27587
upperneck 0.828259 -15.378 5.95649
head 1.95789 -7.59095 2.19691
lclavicle 3.18465e-14 1.24632e-14 0
lhumerus -43.8441 -35.4567 105.515
lradius 59.0138 0 0
lwrist 20.3621 0 0
lhand 20.8459 15.4837 0
lfingers 7.12502 0 0
lthumb 45.3344 38.951 0
rclavicle 3.18465e-14 1.24632e-14 0
rhumerus -58.3146 5.21041 -100.892
rradius 46.9517 0 0
rwrist 22.9719 0 0
rhand -26.0094 3.92774 0
rfingers 7.12502 0 0
rthumb 0.538236 -746.098 0
281
root 8.81662 15.8487 -24.7696 24.7946 73.5573 24.1371
lfemur -23.1103 5.53332 -23.6499
ltibia 42.0001 0 0
lfoot -5.324 -24.2213 0
ltoes 64.4425 0 0
rfemur -56.6471 -5.5553 15.3577
rtibia 83.8323 0 0
rfoot 6.38504 -0.560475 0
rtoes 4.15413 0 0
lowerback 7.00788 -4.89134 -2.89245
upperback 1.91159 -6.70181 -2.49287
thorax -1.8859 -3.31328 -0.402106
lowerneck -4.54556 -11.6213 -5.32242
upperneck 0.875901 -15.3861 5.92214
head 1.97354 -7.5938 2.19142
lclavicle 3.24875e-14 1.25992e-14 0
lhumerus -43.8101 -35.3303 105.505
lradius 59.0112 0 0
lwrist 20.3768 0 0
lhand 20.898 15.5273 0
lfingers 7.12502 0 0
lthumb 45.3833 38.9789 0
rclavicle 3.24875e-14 1.25992e-14 0
rhumerus -58.7083 5.02788 -101.251
rradius 46.7343 0 0
rwrist 23.2912 0 0
rhand -26.1922 4.10892 0
rfingers 7.12502 0 0
rthumb 0.362059 -745.928 0
282
root 8.87049 15.8068 -24.7188 24.8871 73.7186 24.2183
lfemur -23.1704 5.44251 -23.6886
ltibia 41.9785 0 0
lfoot -5.22522 -24.2602 0
ltoes 64.4762 0 0
rfemur -56.533 -5.4264 15.244
rtibia 83.9353 0 0
rfoot 6.40082 -0.681196 0
rtoes 4.34923 0 0
lowerback 6.97776 -4.91392 -2.86994
upperback 1.88887 -6.72959 -2.47429
thorax -1.89229 -3.32708 -0.39405
lowerneck -4.54867 -11.6207 -5.36631
upperneck 0.933587 -15.3868 5.88337
head 1.99317 -7.59297 2.18408
lclavicle 3.27179e-14 1.26827e-14 0
lhumerus -43.7823 -35.2087 105.511
lradius 59.0173 0 0
lwrist 20.3894 0 0
lhand 20.9236 15.5659 0
lfingers 7.12502 0 0
lthumb 45.4073 39.0087 0
rclavicle 3.27179e-14 1.26827e-14 0
rhumerus -59.1151 4.88783 -101.56
rradius 46.5723 0 0
rwrist 23.6422 0 0
rhand -26.3626 4.24586 0
rfingers 7.12502 0 0
rthumb 0.197837 -745.801 0
283
root 8.92437 15.7648 -24.6679 24.9825 73.8475 24.3224
lfemur -23.2125 5.4011 -23.7035
ltibia 42.0143 0 0
lfoot -5.18046 -24.3117 0
ltoes 64.4631 0 0
rfemur -56.2907 -5.28118 15.1526
rtibia 83.8672 0 0
rfoot 6.40581 -0.896258 0
rtoes 4.70687 0 0
lowerback 6.93954 -4.93251 -2.86461
upperback 1.87272 -6.75198 -2.45396
thorax -1.88549 -3.3385 -0.376271
lowerneck -4.55222 -11.6166 -5.40935
upperneck 1.00281 -15.3838 5.84813
head 2.01751 -7.59032 2.17777
lclavicle 3.2335e-14 1.26878e-14 0
lhumerus -43.7535 -35.1041 105.518
lradius 59.0336 0 0
lwrist 20.3981 0 0
lhand 20.9268 15.5997 0
lfingers 7.12502 0 0
lthumb 45.41 39.0394 0
rclavicle 3.2335e-14 1.26878e-14 0
rhumerus -59.5526 4.84781 -101.83
rradius 46.5247 0 0
rwrist 23.9943 0 0
rhand -26.5191 4.31021 0
rfingers 7.12502 0 0
rthumb 0.0471387 -745.747 0
284
root 8.97824 15.7229 -24.6171 25.0951 73.9522 24.4822
lfemur -23.215 5.41612 -23.6901
ltibia 42.1304 0 0
lfoot -5.20375 -24.3958 0
ltoes 64.3944 0 0
rfemur -55.9105 -5.12667 15.1105
rtibia 83.5771 0 0
rfoot 6.38339 -1.22669 0
rtoes 5.29807 0 0
lowerback 6.89627 -4.94723 -2.88618
upperback 1.86929 -6.76937 -2.43716
thorax -1.86025 -3.34786 -0.349036
lowerneck -4.55094 -11.6115 -5.45333
upperneck 1.08506 -15.3807 5.82438
head 2.04729 -7.58771 2.17537
lclavicle 3.11361e-14 1.25886e-14 0
lhumerus -43.7164 -35.0285 105.513
lradius 59.0619 0 0
lwrist 20.4016 0 0
lhand 20.9115 15.6292 0
lfingers 7.12502 0 0
lthumb 45.3952 39.0703 0
rclavicle 3.11361e-14 1.25886e-14 0
rhumerus -60.0385 4.96536 -102.073
rradius 46.6501 0 0
rwrist 24.3168 0 0
rhand -26.6598 4.27361 0
rfingers 7.12502 0 0
rthumb -0.0884692 -745.792 0
285
root 9.03212 15.6809 -24.5662 25.239 74.0408 24.7305
lfemur -23.1566 5.49464 -23.6439
ltibia 42.3498 0 0
lfoot -5.30913 -24.5327 0
ltoes 64.2612 0 0
rfemur -55.3827 -4.9699 15.1448
rtibia 83.0139 0 0
rfoot 6.31688 -1.69354 0
rtoes 6.19382 0 0
lowerback 6.85095 -4.95818 -2.94434
upperback 1.88471 -6.78217 -2.42914
thorax -1.81133 -3.35546 -0.312608
lowerneck -4.53954 -11.6077 -5.50006
upperneck 1.18183 -15.3815 5.82008
head 2.08325 -7.587 2.17975
lclavicle 2.89185e-14 1.23592e-14 0
lhumerus -43.6637 -34.9939 105.483
lradius 59.1038 0 0
lwrist 20.3981 0 0
lhand 20.8817 15.6547 0
lfingers 7.12502 0 0
lthumb 45.3668 39.1008 0
rclavicle 2.89185e-14 1.23592e-14 0
rhumerus -60.5904 5.29802 -102.301
rradius 47.0075 0 0
rwrist 24.579 0 0
rhand -26.7832 4.10769 0
rfingers 7.12502 0 0
rthumb -0.207419 -745.965 0
